<svg id="visual" viewBox="0 0 1920 1080" width="1920" height="1080" xmlns="http://www.w3.org/2000/svg" xmlns:xlink="http://www.w3.org/1999/xlink" version="1.1"><rect x="0" y="0" width="1920" height="1080" fill="#24a0ff"></rect><defs><linearGradient id="grad1_0" x1="43.8%" y1="0%" x2="100%" y2="100%"><stop offset="14.444444444444446%" stop-color="#fbae3c" stop-opacity="1"></stop><stop offset="85.55555555555554%" stop-color="#fbae3c" stop-opacity="1"></stop></linearGradient></defs><defs><linearGradient id="grad1_1" x1="43.8%" y1="0%" x2="100%" y2="100%"><stop offset="14.444444444444446%" stop-color="#fbae3c" stop-opacity="1"></stop><stop offset="85.55555555555554%" stop-color="#ff965a" stop-opacity="1"></stop></linearGradient></defs><defs><linearGradient id="grad1_2" x1="43.8%" y1="0%" x2="100%" y2="100%"><stop offset="14.444444444444446%" stop-color="#ff8280" stop-opacity="1"></stop><stop offset="85.55555555555554%" stop-color="#ff965a" stop-opacity="1"></stop></linearGradient></defs><defs><linearGradient id="grad1_3" x1="43.8%" y1="0%" x2="100%" y2="100%"><stop offset="14.444444444444446%" stop-color="#ff8280" stop-opacity="1"></stop><stop offset="85.55555555555554%" stop-color="#ff79a9" stop-opacity="1"></stop></linearGradient></defs><defs><linearGradient id="grad1_4" x1="43.8%" y1="0%" x2="100%" y2="100%"><stop offset="14.444444444444446%" stop-color="#fc7dcf" stop-opacity="1"></stop><stop offset="85.55555555555554%" stop-color="#ff79a9" stop-opacity="1"></stop></linearGradient></defs><defs><linearGradient id="grad1_5" x1="43.8%" y1="0%" x2="100%" y2="100%"><stop offset="14.444444444444446%" stop-color="#fc7dcf" stop-opacity="1"></stop><stop offset="85.55555555555554%" stop-color="#d089ee" stop-opacity="1"></stop></linearGradient></defs><defs><linearGradient id="grad1_6" x1="43.8%" y1="0%" x2="100%" y2="100%"><stop offset="14.444444444444446%" stop-color="#9096ff" stop-opacity="1"></stop><stop offset="85.55555555555554%" stop-color="#d089ee" stop-opacity="1"></stop></linearGradient></defs><defs><linearGradient id="grad1_7" x1="43.8%" y1="0%" x2="100%" y2="100%"><stop offset="14.444444444444446%" stop-color="#9096ff" stop-opacity="1"></stop><stop offset="85.55555555555554%" stop-color="#24a0ff" stop-opacity="1"></stop></linearGradient></defs><defs><linearGradient id="grad2_0" x1="0%" y1="0%" x2="56.3%" y2="100%"><stop offset="14.444444444444446%" stop-color="#fbae3c" stop-opacity="1"></stop><stop offset="85.55555555555554%" stop-color="#fbae3c" stop-opacity="1"></stop></linearGradient></defs><defs><linearGradient id="grad2_1" x1="0%" y1="0%" x2="56.3%" y2="100%"><stop offset="14.444444444444446%" stop-color="#ff965a" stop-opacity="1"></stop><stop offset="85.55555555555554%" stop-color="#fbae3c" stop-opacity="1"></stop></linearGradient></defs><defs><linearGradient id="grad2_2" x1="0%" y1="0%" x2="56.3%" y2="100%"><stop offset="14.444444444444446%" stop-color="#ff965a" stop-opacity="1"></stop><stop offset="85.55555555555554%" stop-color="#ff8280" stop-opacity="1"></stop></linearGradient></defs><defs><linearGradient id="grad2_3" x1="0%" y1="0%" x2="56.3%" y2="100%"><stop offset="14.444444444444446%" stop-color="#ff79a9" stop-opacity="1"></stop><stop offset="85.55555555555554%" stop-color="#ff8280" stop-opacity="1"></stop></linearGradient></defs><defs><linearGradient id="grad2_4" x1="0%" y1="0%" x2="56.3%" y2="100%"><stop offset="14.444444444444446%" stop-color="#ff79a9" stop-opacity="1"></stop><stop offset="85.55555555555554%" stop-color="#fc7dcf" stop-opacity="1"></stop></linearGradient></defs><defs><linearGradient id="grad2_5" x1="0%" y1="0%" x2="56.3%" y2="100%"><stop offset="14.444444444444446%" stop-color="#d089ee" stop-opacity="1"></stop><stop offset="85.55555555555554%" stop-color="#fc7dcf" stop-opacity="1"></stop></linearGradient></defs><defs><linearGradient id="grad2_6" x1="0%" y1="0%" x2="56.3%" y2="100%"><stop offset="14.444444444444446%" stop-color="#d089ee" stop-opacity="1"></stop><stop offset="85.55555555555554%" stop-color="#9096ff" stop-opacity="1"></stop></linearGradient></defs><defs><linearGradient id="grad2_7" x1="0%" y1="0%" x2="56.3%" y2="100%"><stop offset="14.444444444444446%" stop-color="#24a0ff" stop-opacity="1"></stop><stop offset="85.55555555555554%" stop-color="#9096ff" stop-opacity="1"></stop></linearGradient></defs><g transform="translate(1920, 0)"><path d="M0 918C-72.4 847 -144.8 776 -248.1 763.7C-351.5 751.4 -485.9 797.9 -539.6 742.7C-593.2 687.5 -566.1 530.6 -606.8 440.8C-647.4 351.1 -755.7 328.4 -818.9 266.1C-882 203.8 -900 101.9 -918 0L0 0Z" fill="#669cff"></path><path d="M0 803.3C-63.3 741.1 -126.7 679 -217.1 668.2C-307.6 657.5 -425.2 698.1 -472.1 649.8C-519.1 601.5 -495.4 464.3 -530.9 385.7C-566.5 307.2 -661.2 287.3 -716.5 232.8C-771.8 178.3 -787.5 89.1 -803.2 0L0 0Z" fill="#b290f8"></path><path d="M0 688.5C-54.3 635.2 -108.6 582 -186.1 572.8C-263.6 563.6 -364.4 598.4 -404.7 557C-444.9 515.6 -424.6 398 -455.1 330.6C-485.5 263.3 -566.8 246.3 -614.1 199.5C-661.5 152.8 -675 76.4 -688.5 0L0 0Z" fill="#e882e0"></path><path d="M0 573.8C-45.2 529.4 -90.5 485 -155.1 477.3C-219.7 469.6 -303.7 498.7 -337.2 464.2C-370.8 429.7 -353.8 331.6 -379.2 275.5C-404.6 219.4 -472.3 205.2 -511.8 166.3C-551.3 127.4 -562.5 63.7 -573.7 0L0 0Z" fill="#ff79bd"></path><path d="M0 459C-36.2 423.5 -72.4 388 -124.1 381.8C-175.8 375.7 -243 398.9 -269.8 371.3C-296.6 343.7 -283.1 265.3 -303.4 220.4C-323.7 175.5 -377.9 164.2 -409.4 133C-441 101.9 -450 50.9 -459 0L0 0Z" fill="#ff7c94"></path><path d="M0 344.3C-27.1 317.6 -54.3 291 -93.1 286.4C-131.8 281.8 -182.2 299.2 -202.3 278.5C-222.5 257.8 -212.3 199 -227.5 165.3C-242.8 131.6 -283.4 123.1 -307.1 99.8C-330.8 76.4 -337.5 38.2 -344.2 0L0 0Z" fill="#ff8c6c"></path><path d="M0 229.5C-18.1 211.7 -36.2 194 -62 190.9C-87.9 187.9 -121.5 199.5 -134.9 185.7C-148.3 171.9 -141.5 132.7 -151.7 110.2C-161.8 87.8 -188.9 82.1 -204.7 66.5C-220.5 50.9 -225 25.5 -229.5 0L0 0Z" fill="#ffa24a"></path><path d="M0 114.8C-9 105.9 -18.1 97 -31 95.5C-43.9 93.9 -60.7 99.7 -67.4 92.8C-74.2 85.9 -70.8 66.3 -75.8 55.1C-80.9 43.9 -94.5 41 -102.4 33.3C-110.3 25.5 -112.5 12.7 -114.7 0L0 0Z" fill="#fbae3c"></path></g><g transform="translate(0, 1080)"><path d="M0 -918C81 -855 162.1 -791.9 247.2 -760.8C332.4 -729.8 421.7 -730.7 510.2 -702.2C598.7 -673.8 686.5 -615.9 742.7 -539.6C798.9 -463.2 823.4 -368.4 847.4 -275.3C871.3 -182.3 894.7 -91.2 918 0L0 0Z" fill="#669cff"></path><path d="M0 -803.2C70.9 -748.1 141.8 -692.9 216.3 -665.7C290.8 -638.6 369 -639.4 446.4 -614.4C523.9 -589.5 600.7 -538.9 649.8 -472.1C699 -405.3 720.5 -322.3 741.5 -240.9C762.4 -159.5 782.8 -79.8 803.3 0L0 0Z" fill="#b290f8"></path><path d="M0 -688.5C60.8 -641.2 121.5 -593.9 185.4 -570.6C249.3 -547.3 316.2 -548 382.6 -526.7C449 -505.3 514.9 -462 557 -404.7C599.1 -347.4 617.6 -276.3 635.5 -206.5C653.5 -136.7 671 -68.4 688.5 0L0 0Z" fill="#e882e0"></path><path d="M0 -573.7C50.6 -534.3 101.3 -494.9 154.5 -475.5C207.7 -456.1 263.5 -456.7 318.9 -438.9C374.2 -421.1 429.1 -385 464.2 -337.2C499.3 -289.5 514.6 -230.2 529.6 -172.1C544.6 -113.9 559.2 -57 573.8 0L0 0Z" fill="#ff79bd"></path><path d="M0 -459C40.5 -427.5 81 -396 123.6 -380.4C166.2 -364.9 210.8 -365.3 255.1 -351.1C299.4 -336.9 343.3 -308 371.3 -269.8C399.4 -231.6 411.7 -184.2 423.7 -137.7C435.7 -91.2 447.3 -45.6 459 0L0 0Z" fill="#ff7c94"></path><path d="M0 -344.2C30.4 -320.6 60.8 -297 92.7 -285.3C124.6 -273.7 158.1 -274 191.3 -263.3C224.5 -252.7 257.4 -231 278.5 -202.3C299.6 -173.7 308.8 -138.1 317.8 -103.3C326.8 -68.4 335.5 -34.2 344.3 0L0 0Z" fill="#ff8c6c"></path><path d="M0 -229.5C20.3 -213.7 40.5 -198 61.8 -190.2C83.1 -182.4 105.4 -182.7 127.5 -175.6C149.7 -168.4 171.6 -154 185.7 -134.9C199.7 -115.8 205.9 -92.1 211.8 -68.8C217.8 -45.6 223.7 -22.8 229.5 0L0 0Z" fill="#ffa24a"></path><path d="M0 -114.7C10.1 -106.9 20.3 -99 30.9 -95.1C41.5 -91.2 52.7 -91.3 63.8 -87.8C74.8 -84.2 85.8 -77 92.8 -67.4C99.9 -57.9 102.9 -46 105.9 -34.4C108.9 -22.8 111.8 -11.4 114.8 0L0 0Z" fill="#fbae3c"></path></g></svg>